<svg xmlns="http://www.w3.org/2000/svg" width="26.442" height="30.849" viewBox="0 0 26.442 30.849">
  <path id="Icon_metro-file-excel" data-name="Icon metro-file-excel" d="M27.842,8.745a4.006,4.006,0,0,1,.826,1.308,3.973,3.973,0,0,1,.344,1.515V31.4a1.646,1.646,0,0,1-1.653,1.653H4.223A1.646,1.646,0,0,1,2.571,31.4V3.856A1.646,1.646,0,0,1,4.223,2.2H19.648a3.974,3.974,0,0,1,1.515.344,4.006,4.006,0,0,1,1.308.826ZM20.2,4.545v6.473h6.473a1.881,1.881,0,0,0-.379-.706L20.9,4.923a1.88,1.88,0,0,0-.706-.379Zm6.61,26.3V13.221H19.648a1.646,1.646,0,0,1-1.653-1.653V4.407H4.774V30.849H26.809ZM9.956,26.82v1.825h4.837V26.82H13.5l1.773-2.772a2.468,2.468,0,0,0,.172-.284q.086-.164.129-.232t.06-.069h.034a.593.593,0,0,0,.086.172.962.962,0,0,0,.077.129q.043.06.1.138l.112.146,1.842,2.772H16.583v1.825h5.009V26.82H20.422l-3.305-4.7,3.357-4.855h1.153V15.424h-4.8v1.842H18.1L16.325,20q-.069.121-.172.284T16,20.52l-.034.052h-.034a.592.592,0,0,0-.086-.172,2.054,2.054,0,0,0-.293-.4l-1.825-2.737h1.308V15.424H10.042v1.842h1.171l3.254,4.682-3.34,4.872H9.956Z" transform="translate(-2.571 -2.203)" fill="#b0abff"/>
</svg>
