<svg xmlns="http://www.w3.org/2000/svg" width="63" height="63" viewBox="0 0 63 63">
  <g id="Group_1" data-name="Group 1" transform="translate(-141 -58)">
    <circle id="Ellipse_1" data-name="Ellipse 1" cx="31.5" cy="31.5" r="31.5" transform="translate(141 58)" fill="#6c63ff"/>
    <path id="Path_2426" data-name="Path 2426" d="M32.87,3.82a.506.506,0,0,1,.449.324,2.546,2.546,0,0,1,.17,1.1A5.4,5.4,0,0,1,32.7,7.853a9.285,9.285,0,0,1-2.316,2.637A13.068,13.068,0,0,1,26.6,12.551a15.174,15.174,0,0,1-5.193.819,13.178,13.178,0,0,1-4.945-.88,9.329,9.329,0,0,1-3.739-2.736,13.081,13.081,0,0,1-2.4-4.744,26.236,26.236,0,0,1-.912-6.939A27.137,27.137,0,0,0,6.567.9Q5.115,2.554,3.815,4.263T1.483,7.436Q.448,8.919-.1,9.722q-.8,1.2-1.313,2.024A8.555,8.555,0,0,1-2.4,13.075a2.942,2.942,0,0,1-1.066.742,4.389,4.389,0,0,1-1.583.231,4.633,4.633,0,0,1-1.638-.279,4.649,4.649,0,0,1-1.286-.708,3.214,3.214,0,0,1-.835-.973,2.277,2.277,0,0,1-.291-1.1q0-.526.061-1.236t.17-1.452l.216-1.468q.107-.726.2-1.313l.263-1.638q.138-.864.309-1.917t.34-2.334q.17-1.282.324-2.858.186-1.854.356-3.6t.417-3.6a16.6,16.6,0,0,1,.4-1.994,4.839,4.839,0,0,1,.71-1.561A3.228,3.228,0,0,1-4.135-15a4.289,4.289,0,0,1,1.917-.37,4.6,4.6,0,0,1,1.67.247,2.075,2.075,0,0,1,.928.665,2.075,2.075,0,0,1,.4.957,7.75,7.75,0,0,1,.077,1.1q0,.309-.016.556t-.045.463l-.016.247q-.016.247-.138.957t-.4,1.994Q-.022-6.906-.485-4.772q-.279,1.236-.593,2.534T-1.65.235Q-1.913,1.41-2.1,2.352T-2.347,3.82Q-1.6,2.955-.616,1.671T1.362-.94q.989-1.329,1.917-2.534T4.862-5.42Q5.912-6.6,6.917-7.646A15.607,15.607,0,0,1,9.01-9.489,9.495,9.495,0,0,1,11.3-10.726a7.574,7.574,0,0,1,2.659-.449,3.881,3.881,0,0,1,1.329.186,1.727,1.727,0,0,1,.758.51,1.632,1.632,0,0,1,.34.742,4.833,4.833,0,0,1,.077.88v.495q0,.186-.077.88t-.186,1.5q-.109.8-.186,1.515t-.077.928A25.257,25.257,0,0,0,16.305.912a12.747,12.747,0,0,0,1.159,3.6,6.6,6.6,0,0,0,2.024,2.417,4.979,4.979,0,0,0,2.967.88,13.884,13.884,0,0,0,2.1-.138A8.563,8.563,0,0,0,26.309,7.2a10.969,10.969,0,0,0,1.741-.868q.9-.54,2.071-1.313a8.67,8.67,0,0,1,.9-.617,4.627,4.627,0,0,1,.88-.417,2.892,2.892,0,0,1,.973-.168Z" transform="translate(163.749 90.135)" fill="#fff"/>
  </g>
</svg>
