<svg xmlns="http://www.w3.org/2000/svg" width="48" height="48" viewBox="0 0 48 48">
  <g id="Group_1" data-name="Group 1" transform="translate(-141 -58)">
    <circle id="Ellipse_1" data-name="Ellipse 1" cx="24" cy="24" r="24" transform="translate(141 58)" fill="#fff"/>
    <path id="Path_2426" data-name="Path 2426" d="M22.877-.751a.386.386,0,0,1,.342.247,1.94,1.94,0,0,1,.13.836,4.113,4.113,0,0,1-.6,1.989,7.075,7.075,0,0,1-1.765,2.009A9.956,9.956,0,0,1,18.1,5.9a11.561,11.561,0,0,1-3.956.624,10.041,10.041,0,0,1-3.768-.671A7.108,7.108,0,0,1,7.524,3.771,9.967,9.967,0,0,1,5.7.157,19.99,19.99,0,0,1,5-5.131,20.676,20.676,0,0,0,2.837-2.975Q1.73-1.715.74-.413T-1.037,2q-.788,1.13-1.206,1.742-.612.918-1,1.542A6.518,6.518,0,0,1-4,6.3a2.241,2.241,0,0,1-.812.565,3.344,3.344,0,0,1-1.206.176A3.53,3.53,0,0,1-7.263,6.83a3.542,3.542,0,0,1-.98-.54,2.449,2.449,0,0,1-.636-.742A1.735,1.735,0,0,1-9.1,4.713q0-.4.047-.942t.13-1.106l.164-1.118q.081-.553.151-1l.2-1.248q.105-.659.235-1.46t.259-1.778q.13-.977.247-2.178.142-1.412.271-2.743t.318-2.743a12.651,12.651,0,0,1,.3-1.519,3.686,3.686,0,0,1,.541-1.189,2.46,2.46,0,0,1,.918-.778,3.268,3.268,0,0,1,1.46-.282,3.5,3.5,0,0,1,1.272.188,1.581,1.581,0,0,1,.707.506,1.581,1.581,0,0,1,.3.729,5.905,5.905,0,0,1,.059.836q0,.235-.012.424t-.035.353l-.012.188q-.012.188-.106.729t-.3,1.519q-.2.977-.553,2.6-.213.942-.452,1.931t-.436,1.884q-.2.9-.342,1.613T-3.955-.751q.565-.659,1.319-1.637t1.507-1.989Q-.375-5.39.332-6.308T1.538-7.791q.8-.9,1.566-1.7a11.891,11.891,0,0,1,1.595-1.4,7.234,7.234,0,0,1,1.742-.942,5.771,5.771,0,0,1,2.026-.342,2.957,2.957,0,0,1,1.013.142,1.316,1.316,0,0,1,.577.389,1.243,1.243,0,0,1,.259.565,3.682,3.682,0,0,1,.059.671v.377q0,.142-.059.671t-.142,1.142q-.083.612-.142,1.154t-.059.707a19.244,19.244,0,0,0,.283,3.391A9.712,9.712,0,0,0,11.14-.223a5.031,5.031,0,0,0,1.542,1.842,3.794,3.794,0,0,0,2.261.671,10.579,10.579,0,0,0,1.6-.106,6.525,6.525,0,0,0,1.334-.356A8.357,8.357,0,0,0,19.2,1.166q.683-.411,1.578-1a6.605,6.605,0,0,1,.683-.47,3.525,3.525,0,0,1,.671-.318,2.2,2.2,0,0,1,.742-.128Z" transform="translate(160.499 86.145)" fill="#6c63ff"/>
  </g>
</svg>
