<svg xmlns="http://www.w3.org/2000/svg" width="30.451" height="30.451" viewBox="0 0 30.451 30.451">
  <path id="message" d="M15.225,0A15.227,15.227,0,0,0,2.019,22.8L.057,28.9a1.189,1.189,0,0,0,1.5,1.5l6.092-1.962A15.226,15.226,0,1,0,15.225,0Zm0,28.072a12.809,12.809,0,0,1-6.8-1.946,1.19,1.19,0,0,0-1-.124l-4.4,1.416,1.416-4.4a1.19,1.19,0,0,0-.124-1,12.847,12.847,0,1,1,10.9,6.047Zm1.487-12.846a1.487,1.487,0,1,1-1.487-1.487A1.487,1.487,0,0,1,16.712,15.225Zm5.947,0a1.487,1.487,0,1,1-1.487-1.487A1.487,1.487,0,0,1,22.659,15.225Zm-11.895,0a1.487,1.487,0,1,1-1.487-1.487A1.487,1.487,0,0,1,10.765,15.225Zm0,0" fill="#a2a2a2"/>
</svg>
