<svg id="Group_483" data-name="Group 483" xmlns="http://www.w3.org/2000/svg" width="28.875" height="31.5" viewBox="0 0 28.875 31.5">
  <path id="Path_2810" data-name="Path 2810" d="M138.254,421.906a4.928,4.928,0,0,1-4.922-4.922.984.984,0,0,1,1.969,0,2.953,2.953,0,0,0,5.906,0,.984.984,0,0,1,1.969,0A4.928,4.928,0,0,1,138.254,421.906Zm0,0" transform="translate(-125.129 -390.406)" fill="#a2a2a2"/>
  <g id="Group_482" data-name="Group 482" transform="translate(0 0)">
    <path id="Path_2811" data-name="Path 2811" d="M23.953,87.625H2.3A2.3,2.3,0,0,1,.8,83.583.908.908,0,0,1,.908,83.5,8.821,8.821,0,0,0,3.938,76.85V73.188A9.2,9.2,0,0,1,13.125,64a3.954,3.954,0,0,1,.647.039.984.984,0,1,1-.323,1.941,2.065,2.065,0,0,0-.324-.012,7.227,7.227,0,0,0-7.219,7.219V76.85A10.8,10.8,0,0,1,2.1,85.08c-.02.016-.037.03-.058.045a.325.325,0,0,0-.069.2.332.332,0,0,0,.328.328H23.953a.332.332,0,0,0,.328-.328.314.314,0,0,0-.071-.2c-.02-.014-.037-.029-.056-.045a10.792,10.792,0,0,1-3.81-8.231v-1.43a.984.984,0,0,1,1.969,0v1.43a8.824,8.824,0,0,0,3.033,6.658.956.956,0,0,1,.1.076,2.3,2.3,0,0,1-1.494,4.041Zm0,0" transform="translate(0 -60.063)" fill="#a2a2a2"/>
    <path id="Path_2812" data-name="Path 2812" d="M262.563,13.125a6.562,6.562,0,1,1,6.562-6.562A6.57,6.57,0,0,1,262.563,13.125Zm0-11.156a4.594,4.594,0,1,0,4.594,4.594,4.6,4.6,0,0,0-4.594-4.594Zm0,0" transform="translate(-240.25)" fill="#17af75"/>
  </g>
</svg>
