<svg id="whatsapp" xmlns="http://www.w3.org/2000/svg" width="19" height="19" viewBox="0 0 19 19">
  <path id="Path_8099" data-name="Path 8099" d="M9.5,0h0A9.494,9.494,0,0,0,1.809,15.068L.625,18.6,4.276,17.43A9.5,9.5,0,1,0,9.5,0Z" fill="#4caf50"/>
  <path id="Path_8100" data-name="Path 8100" d="M116.892,124.693a2.332,2.332,0,0,1-1.625,1.124c-.433.089-1,.159-2.9-.6a10.223,10.223,0,0,1-4.121-3.5,4.462,4.462,0,0,1-.983-2.4,2.5,2.5,0,0,1,.846-1.938,1.232,1.232,0,0,1,.846-.286c.1,0,.195,0,.277.009.243.01.365.024.526.393.2.463.686,1.606.744,1.723a.459.459,0,0,1,.035.431,1.378,1.378,0,0,1-.268.365c-.122.135-.238.239-.36.384-.112.126-.238.262-.1.5a7.118,7.118,0,0,0,1.343,1.606,6.142,6.142,0,0,0,1.941,1.152.539.539,0,0,0,.584-.089,9.676,9.676,0,0,0,.647-.824.472.472,0,0,1,.594-.173c.224.075,1.406.637,1.649.754s.4.173.463.272A1.914,1.914,0,0,1,116.892,124.693Z" transform="translate(-102.54 -111.88)" fill="#fafafa"/>
</svg>
